<svg xmlns="http://www.w3.org/2000/svg" width="283" height="62" viewBox="0 0 283 62" fill="none"><path d="M266.71 15.0195C275.446 15.0199 282.524 22.097 282.524 30.833C282.524 39.5691 275.446 46.6471 266.71 46.6475C257.974 46.6475 250.896 39.5694 250.896 30.833C250.896 22.0968 257.974 15.0195 266.71 15.0195ZM81.6055 15C84.1896 15 86.524 15.4047 88.626 16.2725C90.7279 17.1403 92.522 18.3755 93.9297 20.0146L90.3418 23.5244C88.0084 21.1717 85.2115 20.0148 81.8945 20.0146C79.7156 20.0147 77.8258 20.4776 76.1289 21.3838C74.4512 22.3287 73.1589 23.5821 72.2139 25.1826C71.2689 26.8219 70.8057 28.7506 70.8057 30.7949C70.8057 32.8391 71.2689 34.6908 72.2139 36.3301C73.1588 37.9882 74.4508 39.2417 76.1475 40.1865C77.8252 41.1507 79.7352 41.6143 81.8565 41.6143C84.2284 41.6142 86.3309 41.0736 88.1436 40.0322V32.9551H81.586V28.249H93.4854V42.7324C91.9233 43.9859 90.0912 44.951 87.9893 45.626C85.8873 46.3009 83.7072 46.6279 81.5088 46.6279C78.385 46.6279 75.5886 45.953 73.0625 44.584C70.5556 43.2148 68.569 41.3247 67.1611 38.9336C65.7148 36.5423 65.0011 33.8421 65.001 30.8145C65.001 27.806 65.7534 25.0867 67.1611 22.6953C68.5882 20.2654 70.5548 18.4132 73.0811 17.0439C75.6074 15.6748 78.4621 15 81.6055 15ZM111.749 15.4824C114.41 15.4825 116.725 15.9254 118.692 16.8125C120.659 17.6996 122.183 18.9537 123.225 20.5928C124.266 22.2127 124.806 24.1223 124.806 26.417C124.806 28.7118 124.227 30.6982 123.108 32.376C121.99 34.0537 120.37 35.6934 118.287 36.542L125.326 46.2422H119.193L112.945 37.6416C112.695 37.6802 112.308 37.6797 111.769 37.6797H104.845V46.2236H99.1553V15.4824H111.749ZM160.002 46.2236H154.062L150.397 37.6797H136.3L132.636 46.2236H126.772L140.562 15.4629H146.155L160.002 46.2236ZM184.07 20.2451H167.118V28.2295H178.458V32.916H167.118V46.1846H161.41V15.4629H184.07V20.2451ZM212.401 20.2451H195.43V28.249H206.77V32.9355H195.43V41.4023H212.401V46.1846H189.74V15.4629H212.401V20.2451ZM239.594 36.2715V15.4629H245.245V46.1846H240.559L223.684 25.376V46.1846H218.033V15.4629H222.7L239.594 36.2715ZM266.71 20.5156C261.021 20.5156 256.392 25.1439 256.392 30.833C256.392 36.5222 261.021 41.1514 266.71 41.1514C272.399 41.151 277.027 36.522 277.027 30.833C277.027 25.1441 272.399 20.516 266.71 20.5156ZM104.845 32.9551H111.48C113.967 32.955 115.838 32.415 117.13 31.3545C118.441 30.2745 119.059 28.3647 119.059 26.417C119.059 24.4693 118.422 22.9262 117.13 21.8848C115.838 20.8435 113.948 20.3038 111.48 20.3037H104.845V32.9551ZM138.306 32.9551H148.373L143.358 21.1709L138.306 32.9551Z" fill="url(#paint0_linear_979_498)"></path><path d="M49.1777 20.0136C49.8725 19.8283 50.2432 20.8005 49.6182 21.1249L29.2598 31.7089C28.6113 32.0331 29.028 33.0291 29.7227 32.7978L39.8213 29.4862C40.3306 29.3012 40.7934 29.833 40.5391 30.3192L24.3037 61.494C24.0722 61.9107 23.47 61.9336 23.2383 61.494L6.83986 30.1571C6.65494 29.7866 6.8867 29.3236 7.28029 29.2773C14.4832 28.3277 27.2216 25.9195 49.1777 20.0136ZM51.2393 0.0252991C51.8414 -0.136717 52.3512 0.512169 52.0733 1.04483C52.0501 1.0921 47.4866 10.4013 47.3711 10.4706C38.9406 15.2185 20.9452 21.5882 5.42775 24.9696C4.66345 23.9506 0.0771637 14.454 0.0771637 14.454C-0.130886 14.0372 0.10114 13.5278 0.541031 13.412C0.605681 13.4109 9.14339 13.2613 24.002 10.2157C35.6054 7.85335 51.2393 0.0252991 51.2393 0.0252991Z" fill="url(#paint1_linear_979_498)"></path><defs><linearGradient id="paint0_linear_979_498" x1="65.001" y1="30.8237" x2="282.891" y2="30.8237" gradientUnits="userSpaceOnUse"><stop stop-color="#00BBA7"></stop><stop offset="1" stop-color="#16437E"></stop></linearGradient><linearGradient id="paint1_linear_979_498" x1="1.26401e-05" y1="62" x2="52" y2="4.6287e-06" gradientUnits="userSpaceOnUse"><stop stop-color="#00BBA7"></stop><stop offset="1" stop-color="#16437E"></stop></linearGradient></defs></svg>