<svg xmlns="http://www.w3.org/2000/svg" width="84" height="96" viewBox="0 0 84 96" version="1.1">
	<path d="M 78.666 1.616 C 73.559 4.384, 56.675 10.835, 48 13.333 C 38.439 16.086, 25.320 18.442, 10.501 20.068 C 5.001 20.672, 0.360 21.307, 0.187 21.479 C -0.254 21.920, 7.772 37.741, 8.741 38.340 C 11.030 39.755, 53.922 26.604, 68.988 19.868 C 76.098 16.688, 76.171 16.616, 80.072 8.856 C 82.233 4.560, 84 0.809, 84 0.522 C 84 -0.441, 81.525 0.067, 78.666 1.616 M 58.500 36.085 C 47.500 38.749, 32.650 41.917, 25.500 43.127 C 18.350 44.336, 12.129 45.646, 11.675 46.038 C 10.877 46.727, 34.878 92.108, 37.492 94.855 C 38.887 96.320, 38.023 97.746, 56.426 63.584 C 61.142 54.830, 65 47.292, 65 46.834 C 65 45.628, 64.342 45.741, 55.540 48.456 C 48.651 50.582, 45.590 51, 47.083 49.613 C 47.313 49.400, 54.813 45.572, 63.750 41.107 C 72.688 36.642, 80 32.541, 80 31.994 C 80 30.767, 82.163 30.355, 58.500 36.085" stroke="none" fill="black" fill-rule="evenodd"/>
</svg>